<svg width="24" height="20" viewBox="0 0 24 20" fill="none" xmlns="http://www.w3.org/2000/svg">
<path d="M17.1766 0.934082C15.9499 0.934082 14.8252 1.29801 13.8339 2.01577C12.8835 2.70389 12.2507 3.58035 11.8782 4.21767C11.5057 3.58031 10.8729 2.70389 9.92253 2.01577C8.9312 1.29801 7.80653 0.934082 6.57981 0.934082C3.15651 0.934082 0.574951 3.5555 0.574951 7.03176C0.574951 10.7873 3.79563 13.3568 8.67131 17.2467C9.49928 17.9073 10.4378 18.6561 11.4132 19.4546C11.5418 19.56 11.7069 19.6181 11.8782 19.6181C12.0495 19.6181 12.2147 19.56 12.3432 19.4547C13.3188 18.656 14.2572 17.9072 15.0857 17.2463C19.9608 13.3568 23.1815 10.7873 23.1815 7.03176C23.1815 3.5555 20.5999 0.934082 17.1766 0.934082Z" fill="#D01345"/>
</svg>
