<svg aria-hidden="true" style="position: absolute; width: 0; height: 0; overflow: hidden;" version="1.1" xmlns="http://www.w3.org/2000/svg" xmlns:xlink="http://www.w3.org/1999/xlink">
<defs>
<symbol id="icon-heart-new" viewBox="0 0 38 32">
<path fill="#d01345" style="fill: var(--color1, #d01345)" d="M27.483 1.495c-1.963 0-3.762 0.582-5.348 1.731-1.521 1.101-2.533 2.503-3.129 3.523-0.596-1.020-1.608-2.422-3.129-3.523-1.586-1.148-3.386-1.731-5.348-1.731-5.477 0-9.608 4.194-9.608 9.756 0 6.009 5.153 10.12 12.954 16.344 1.325 1.057 2.826 2.255 4.387 3.533 0.206 0.169 0.47 0.262 0.744 0.262s0.538-0.093 0.744-0.261c1.561-1.278 3.062-2.476 4.388-3.533 7.8-6.223 12.953-10.334 12.953-16.343 0-5.562-4.131-9.756-9.608-9.756z"></path>
</symbol>
<symbol id="icon-heart-red" viewBox="0 0 38 32">
<path fill="#d01345" style="fill: var(--color1, #d01345)" d="M27.52 1.6c-2.080 0-3.84 0.48-5.44 1.6s-2.4 2.56-3.2 3.52c-0.48-0.96-1.6-2.4-3.040-3.52-1.6-1.12-3.2-1.6-5.28-1.6-5.302 0-9.6 4.298-9.6 9.6v0c0 6.080 5.12 10.24 12.8 16.32l4.48 3.68 0.8 0.16 0.64-0.16 4.48-3.68c7.84-6.080 12.8-10.24 12.8-16.32 0-5.302-4.298-9.6-9.6-9.6v0z"></path>
</symbol>
<symbol id="icon-heart" viewBox="0 0 38 32">
<path d="M20.727 3.2c1.622-1.166 3.648-1.865 5.837-1.865 5.559 0 10.065 4.506 10.065 10.065 0 0.098-0.001 0.196-0.004 0.294l0-0.014c0 3.2-1.396 5.847-3.593 8.32-2.138 2.415-5.164 4.829-8.64 7.607l-0.087 0.073c-1.207 0.96-2.56 2.036-3.971 3.2-0.431 0.357-0.99 0.574-1.6 0.574s-1.169-0.217-1.604-0.578l0.004 0.003c-1.411-1.164-2.764-2.24-3.971-3.2l-0.087-0.073c-3.491-2.764-6.502-5.193-8.64-7.607-2.196-2.473-3.593-5.105-3.593-8.32-0.002-0.083-0.004-0.18-0.004-0.278 0-5.559 4.506-10.065 10.065-10.065 3.154 0 5.969 1.451 7.815 3.721l0.015 0.019c0.588-0.699 1.242-1.311 1.962-1.84l0.031-0.022zM19.622 6.269c-0.364 0.48-0.655 0.931-0.887 1.309-0.725-1.282-1.682-2.35-2.823-3.18l-0.028-0.020c-1.387-0.998-3.121-1.596-4.994-1.596-4.756 0-8.611 3.855-8.611 8.611 0 0.101 0.002 0.201 0.005 0.301l-0-0.015c0 5.469 4.698 9.207 11.782 14.865 1.207 0.96 2.575 2.036 3.985 3.2 0.182 0.151 0.419 0.243 0.676 0.243s0.494-0.092 0.678-0.245l-0.002 0.001c1.425-1.164 2.793-2.24 4-3.2 7.084-5.673 11.782-9.396 11.782-14.865 0.004-0.101 0.007-0.22 0.007-0.34 0-4.756-3.855-8.611-8.611-8.611-2.849 0-5.375 1.384-6.943 3.516l-0.017 0.024z"></path>
</symbol>
</defs>
</svg>
