<svg aria-hidden="true" style="position: absolute; width: 0; height: 0; overflow: hidden;" version="1.1" xmlns="http://www.w3.org/2000/svg" xmlns:xlink="http://www.w3.org/1999/xlink">
<defs>
<symbol id="icon-heart-new" viewBox="0 0 38 32">
<path fill="#d01345" style="fill:  #d01345" d="M27.483 1.495c-1.963 0-3.762 0.582-5.348 1.731-1.521 1.101-2.533 2.503-3.129 3.523-0.596-1.020-1.608-2.422-3.129-3.523-1.586-1.148-3.386-1.731-5.348-1.731-5.477 0-9.608 4.194-9.608 9.756 0 6.009 5.153 10.12 12.954 16.344 1.325 1.057 2.826 2.255 4.387 3.533 0.206 0.169 0.47 0.262 0.744 0.262s0.538-0.093 0.744-0.261c1.561-1.278 3.062-2.476 4.388-3.533 7.8-6.223 12.953-10.334 12.953-16.343 0-5.562-4.131-9.756-9.608-9.756z"></path>
</symbol>
</defs>
</svg>
